<svg xmlns="http://www.w3.org/2000/svg" width="64" height="64" viewBox="0 0 64.000001 64.000001"><path style="isolation:auto;mix-blend-mode:normal" color="#000" overflow="visible" fill="#171222" fill-rule="evenodd" d="M11.028 8.918h48.618V43.13H11.028z"/><path d="M57.71 4.102H11.484a5.118 5.118 0 0 0-5.136 5.136v30.816a5.135 5.135 0 0 0 5.136 5.137h12.84v5.136h20.544V45.19h12.84c2.825 0 5.11-2.312 5.11-5.137l.026-30.816a5.135 5.135 0 0 0-5.136-5.136zm0 35.952H11.484V9.238h46.224v30.816z" fill="#e53935"/><g transform="translate(.957 -839.861) scale(.85731)"><rect ry="37.326" rx="37.326" y="1019.791" x=".357" height="31.857" width="31.857" style="isolation:auto;mix-blend-mode:normal" color="#000" overflow="visible" fill="#4527a0" fill-rule="evenodd"/><path d="M24.09 1032.932h-4.46v-6.69h-6.69v6.69H8.48l7.806 7.805 7.805-7.805zm-15.61 10.035v2.23h15.61v-2.23H8.48z" fill="#f2f2f2"/></g></svg>